PathFileType	4	(X/Y/Z)	C:/Users/opensim2020/Desktop/walking_exp_matlab/subject06_walking15_straight_02.trc																																																																																																																																											
DataRate	CameraRate	NumFrames	NumMarkers	Units	OrigDataRate	OrigDataStartFrame	OrigNumFrames																																																																																																																																							
100	100	7	47	mm	100	1573	218																																																																																																																																							
Frame#	Time	LFHD			RFHD			LBHD			RBHD			C7			T10			CLAV			STRN			RBAK			LSHO			LUPA			LELB			LFRM			LWRA			LWRB			LFIN			RSHO			RUPA			RELB			RFRM			RWRA			RWRB			RFIN			LASI			RASI			LPSI			RPSI			LTHI			LKNE			LTIB			LANK			LHEE			LTOE			RTHI			RKNE			RTIB			RANK			RHEE			RTOE			*39			*40			*41			*42			*43			*44			*45			*46		
		X1	Y1	Z1	X2	Y2	Z2	X3	Y3	Z3	X4	Y4	Z4	X5	Y5	Z5	X6	Y6	Z6	X7	Y7	Z7	X8	Y8	Z8	X9	Y9	Z9	X10	Y10	Z10	X11	Y11	Z11	X12	Y12	Z12	X13	Y13	Z13	X14	Y14	Z14	X15	Y15	Z15	X16	Y16	Z16	X17	Y17	Z17	X18	Y18	Z18	X19	Y19	Z19	X20	Y20	Z20	X21	Y21	Z21	X22	Y22	Z22	X23	Y23	Z23	X24	Y24	Z24	X25	Y25	Z25	X26	Y26	Z26	X27	Y27	Z27	X28	Y28	Z28	X29	Y29	Z29	X30	Y30	Z30	X31	Y31	Z31	X32	Y32	Z32	X33	Y33	Z33	X34	Y34	Z34	X35	Y35	Z35	X36	Y36	Z36	X37	Y37	Z37	X38	Y38	Z38	X39	Y39	Z39	X40	Y40	Z40	X41	Y41	Z41	X42	Y42	Z42	X43	Y43	Z43	X44	Y44	Z44	X45	Y45	Z45	X46	Y46	Z46	X47	Y47	Z47
																																																																																																																																														
82	0.81	-528.16821	1655.3092	904.65417	-519.66223	1652.32776	1036.7113	-658.92682	1596.11951	916.15558	-648.96045	1598.34253	1045.22339	-648.86646	1439.37524	976.75769	-665.11572	1110.23865	985.47119	-532.51617	1371.47058	977.91412	-480.60306	1200.79553	981.05548	-712.67432	1268.55786	1061.00183	-593.63562	1395.60413	816.03925	-624.08862	1196.68701	748.87592	-648.86945	1086.42761	743.02844	-649.06433	935.37567	724.89923	-609.20984	813.4068	770.83136	-668.58673	817.83612	731.69318	-642.84515	729.90924	735.92554	-584.00647	1404.48816	1137.48523	-596.23718	1207.69055	1232.94263	-567.92218	1088.36523	1245.6261	-518.57123	978.48792	1256.66064	-422.30237	867.38129	1210.67957	-468.92676	850.07074	1256.26526	-408.78589	792.1908	1251.9032	-466.70383	962.83618	896.25122	-502.86639	959.79816	1111.91077	-629.14337	984.95605	901.88287	-649.7652	979.34064	1067.64868	-507.03708	645.54907	829.98175	-499.59979	481.45447	853.03015	-493.29993	226.55708	870.83313	-466.97168	60.27771	924.93243	-503.23785	48.20886	972.1662	-318.9173	35.77999	927.46063	-563.72595	614.33234	1162.52722	-555.75732	486.66772	1150.87695	-749.41364	317.40219	1135.94775	-896.02374	207.58495	1090.06519	-928.35382	232.17146	1043.83472	-866.98486	50.97576	1076.39343	-625.82361	1693.75952	967.81195	NaN	NaN	NaN	NaN	NaN	NaN	NaN	NaN	NaN	NaN	NaN	NaN	NaN	NaN	NaN	NaN	NaN	NaN	NaN	NaN	NaN
83	0.82	-518.34662	1656.39978	904.00574	-510.15262	1653.5752	1036.03918	-648.90521	1596.52161	914.99841	-639.11377	1598.83813	1044.18909	-638.20465	1440.2832	975.58392	-655.13696	1111.21301	984.38385	-521.88043	1372.23657	977.50897	-470.26199	1201.2876	980.81451	-702.8197	1269.41663	1059.44067	-581.53857	1396.51013	815.14063	-609.60333	1197.13318	747.25708	-633.13062	1086.55933	740.85779	-630.86572	935.51593	722.66797	-588.87463	814.45892	769.20575	-648.54504	817.81506	729.36115	-620.90991	730.30603	733.80316	-574.09448	1404.91833	1136.88721	-587.64642	1207.89038	1232.02698	-560.48273	1088.11548	1244.56421	-513.60193	977.01434	1255.87476	-419.96994	863.26007	1210.72778	-467.22037	847.39813	1256.198	-408.74564	787.81274	1252.22388	-457.1315	963.1554	896.49384	-493.89157	960.33038	1112.09314	-618.96075	985.65283	900.96985	-640.56384	979.37317	1066.8739	-500.93188	646.05731	829.52692	-495.72382	481.67099	851.88672	-493.22269	226.88045	870.68286	-467.21039	60.36958	924.87842	-503.36124	48.23383	972.06586	-318.94925	35.61489	927.39197	-547.2392	614.22766	1161.87878	-534.40405	487.16077	1150.12451	-726.97095	319.81885	1136.56494	-876.54236	214.21382	1090.42285	-907.35059	240.23099	1044.0321	-855.01849	55.53128	1077.15735	-616.43274	1694.40186	966.85626	NaN	NaN	NaN	NaN	NaN	NaN	NaN	NaN	NaN	NaN	NaN	NaN	NaN	NaN	NaN	NaN	NaN	NaN	NaN	NaN	NaN
84	0.83	-508.46368	1657.41455	903.35242	-500.69666	1654.8031	1035.49133	-638.79553	1596.90698	914.11249	-629.16577	1599.39929	1043.18347	-627.51001	1441.32153	974.49677	-645.07544	1112.11951	983.13373	-511.42865	1372.91321	977.27014	-460.08292	1201.71582	980.58002	-692.91516	1270.40967	1057.7478	-569.43695	1397.32068	814.27692	-594.992	1197.43628	745.70154	-617.19891	1086.5708	738.62476	-612.10675	935.53967	720.53125	-568.25745	815.29901	766.84955	-627.88098	817.56958	727.08289	-598.52679	730.70117	731.63757	-564.2207	1405.27478	1136.40259	-578.98987	1207.94238	1231.17651	-553.05438	1087.76038	1243.5415	-508.81076	975.4826	1255.16394	-417.94101	859.12634	1210.8031	-465.77875	844.67694	1256.0553	-409.0032	783.50671	1252.56689	-447.49472	963.45416	896.52991	-485.04376	960.83899	1112.31213	-609.18518	986.36743	900.15961	-631.41937	979.43561	1066.03845	-495.246	646.87524	828.46661	-491.46252	482.09659	850.80493	-492.75406	227.16472	870.30133	-467.46738	60.44078	924.75153	-503.65424	48.25491	971.94232	-318.94354	35.42757	927.43982	-530.54706	614.60034	1160.927	-513.37036	488.28302	1149.03076	-704.36591	321.69031	1136.99121	-857.08057	220.17627	1090.41516	-887.54688	246.34615	1043.6344	-838.6474	60.30386	1079.02087	-606.81256	1694.94836	965.78607	NaN	NaN	NaN	NaN	NaN	NaN	NaN	NaN	NaN	NaN	NaN	NaN	NaN	NaN	NaN	NaN	NaN	NaN	NaN	NaN	NaN
85	0.84	-498.69592	1658.46106	902.84583	-491.17496	1655.92407	1034.93958	-628.63477	1597.26953	913.25397	-619.8009	1599.93933	1042.70581	-616.94867	1442.35242	973.53845	-635.20203	1112.99841	981.95367	-500.8493	1373.57129	977.02502	-449.8063	1202.1178	980.21777	-683.1554	1271.4176	1055.93652	-557.36005	1398.09973	813.52228	-580.23407	1197.66833	744.21759	-600.75336	1086.61841	736.22888	-592.82208	935.5705	718.67377	-547.26837	816.31555	765.26544	-606.90509	817.56299	724.83179	-575.71564	731.27008	729.41479	-554.32843	1405.59033	1136.05762	-570.57794	1207.93408	1230.25085	-545.6521	1087.42249	1242.50305	-504.13052	974.08246	1254.49304	-416.3822	855.10089	1210.85974	-464.56018	842.16364	1256.078	-409.64542	779.37292	1252.83704	-438.17468	963.71588	896.47876	-476.04199	961.43762	1112.47449	-599.78375	987.0589	899.30487	-622.7453	979.76776	1065.34509	-489.38837	647.63263	827.35034	-486.73849	482.60266	850.02008	-491.18518	227.44095	869.68481	-467.78101	60.58834	924.65021	-504.41522	48.49546	971.81732	-318.82449	35.28323	927.85596	-513.87653	615.59167	1159.93823	-492.77435	489.98883	1147.92676	-682.44598	323.53561	1136.95349	-837.54449	225.35822	1090.07227	-869.16473	250.5041	1043.25293	-816.45941	65.9108	1081.39392	-597.41956	1695.56433	965.05292	NaN	NaN	NaN	NaN	NaN	NaN	NaN	NaN	NaN	NaN	NaN	NaN	NaN	NaN	NaN	NaN	NaN	NaN	NaN	NaN	NaN
86	0.85	-488.78	1659.37402	902.341	-481.55566	1656.98572	1034.45691	-618.52289	1597.64514	912.65686	-610.10156	1600.42004	1042.02136	-606.45355	1443.27368	972.60876	-625.57617	1113.95728	980.84198	-490.64236	1374.13794	976.81891	-439.93054	1202.47668	979.99243	-673.54614	1272.54724	1054.21106	-545.33392	1398.83887	812.88019	-565.36877	1197.91797	742.80408	-584.47424	1086.53113	734.19928	-573.44098	935.82855	716.2298	-526.30676	817.35968	763.57068	-585.1947	817.37689	722.32788	-552.47552	731.9281	727.15631	-544.45697	1405.91467	1135.75061	-562.16571	1207.97058	1229.33496	-538.45917	1087.23218	1241.479	-499.60242	972.85779	1253.82239	-415.06824	851.32745	1210.90698	-463.58328	839.96191	1256.21167	-410.50189	775.586	1253.20288	-429.16061	964.13818	896.27301	-467.10236	962.13617	1112.6084	-590.77881	987.75006	898.62042	-613.46729	979.99438	1064.59631	-483.49734	648.40149	827.08728	-481.87369	483.21194	849.53033	-489.07166	227.86272	869.19513	-467.42957	60.85701	924.62347	-504.51749	48.38782	971.61365	-318.71796	35.15433	928.15643	-497.28061	617.11896	1158.90332	-472.59741	492.2471	1146.72229	-662.04523	326.17999	1136.45056	-817.27966	229.60147	1089.93909	-850.90112	252.88612	1043.2688	-790.70856	70.49904	1082.89539	-587.84515	1696.13977	964.2771	NaN	NaN	NaN	NaN	NaN	NaN	NaN	NaN	NaN	NaN	NaN	NaN	NaN	NaN	NaN	NaN	NaN	NaN	NaN	NaN	NaN
87	0.86	-478.91132	1660.31628	901.9306	-471.87274	1657.97375	1033.99963	-608.45679	1598.04395	911.82886	-599.97998	1600.93787	1041.08362	-596.05438	1444.20044	971.72821	-616.1759	1114.91602	979.82446	-480.54465	1374.71338	976.70422	-431.48849	1202.55664	979.93188	-663.86969	1273.58093	1052.58655	-533.50714	1399.59009	812.37067	-550.43555	1198.20789	741.52606	-567.12402	1086.62817	732.32111	-553.56104	936.09521	714.11365	-504.50095	818.72363	761.47998	-563.05542	817.31793	720.33673	-528.85553	732.79974	724.87024	-534.6333	1406.34851	1135.49866	-554.14752	1208.10864	1228.37317	-531.39368	1087.15234	1240.3772	-495.28094	971.8858	1253.14905	-414.21432	847.81757	1210.91919	-462.76599	838.14435	1256.51123	-411.57782	772.14423	1253.57776	-420.42795	964.66058	895.75922	-457.87076	962.86597	1112.40564	-582.12482	988.44995	898.10779	-604.48181	980.51068	1064.12268	-477.30533	649.03198	827.1615	-477.29745	483.7211	849.59308	-486.58612	228.36087	868.84436	-467.74493	60.86193	924.57788	-504.582	48.40626	971.44244	-318.62607	34.99155	928.22845	-480.98709	619.05219	1157.96277	-452.79266	494.91943	1145.30298	-641.46283	329.20743	1135.85718	-796.28192	232.05496	1089.94409	-831.8125	253.46982	1043.59949	-763.31598	74.6282	1084.59546	-578.19928	1696.65479	963.64075	NaN	NaN	NaN	NaN	NaN	NaN	NaN	NaN	NaN	NaN	NaN	NaN	NaN	NaN	NaN	NaN	NaN	NaN	NaN	NaN	NaN
88	0.87	-469.03503	1661.23975	901.51233	-462.30392	1658.99146	1033.72192	-598.27405	1598.55408	911.42572	-590.10956	1601.50476	1040.49451	-585.79779	1445.19714	971.05841	-607.01007	1115.97961	978.88751	-470.54126	1375.32751	976.57056	-422.18176	1202.91272	979.61353	-654.44806	1274.79065	1051.13586	-521.86475	1400.34021	811.96747	-535.5011	1198.60535	740.41382	-550.40784	1086.82654	729.90601	-533.49536	936.64691	712.0481	-483.79999	819.8819	760.56189	-540.88257	817.70404	717.82172	-504.82144	734.04468	722.45166	-524.88116	1406.8844	1135.27209	-546.1969	1208.38794	1227.49255	-524.60962	1087.23291	1239.31836	-491.1069	971.16943	1252.45654	-413.64938	844.66412	1210.86218	-462.22006	836.50891	1256.52417	-412.77524	769.18994	1254.00903	-411.89413	965.28815	894.81342	-448.81241	963.64539	1111.80859	-573.73492	989.15656	897.77844	-595.28778	981.24994	1063.90906	-470.45758	649.53979	827.25916	-471.94919	484.19852	849.39581	-484.15765	228.83604	868.57477	-467.69275	61.04693	924.65649	-504.64188	48.51895	971.36224	-318.52881	34.86546	928.30994	-464.84918	621.29987	1156.94788	-433.45438	498.03906	1143.73267	-620.6272	331.83923	1135.00525	-774.58868	232.62109	1090.24707	-811.70715	252.52859	1044.03381	-735.40448	77.20925	1085.66614	-568.50745	1697.26465	963.04712	NaN	NaN	NaN	NaN	NaN	NaN	NaN	NaN	NaN	NaN	NaN	NaN	NaN	NaN	NaN	NaN	NaN	NaN	NaN	NaN	NaN
